<svg width="523" height="359" viewBox="0 0 523 359" fill="none" xmlns="http://www.w3.org/2000/svg">
<g filter="url(#filter0_d)">
<path d="M459.777 164.834H70.581V349.891H459.777V164.834Z" fill="#E6E6E6"/>
<path d="M448.648 180.703H81.7102V335.102H448.648V180.703Z" fill="white"/>
<path d="M387.284 209.442H377.783V218.963H387.284V209.442Z" fill="#E6E6E6"/>
<path d="M133.84 209.442H124.338V218.963H133.84V209.442Z" fill="#AFECFA"/>
<path d="M155.736 236.714H124.063V268.452H155.736V236.714Z" fill="#E6E6E6"/>
<path d="M459.611 154.142H70.4151V170.71H459.611V154.142Z" fill="#AFECFA"/>
<path d="M82.7021 169.172C84.3946 169.172 85.7666 167.798 85.7666 166.102C85.7666 164.406 84.3946 163.031 82.7021 163.031C81.0096 163.031 79.6375 164.406 79.6375 166.102C79.6375 167.798 81.0096 169.172 82.7021 169.172Z" fill="white"/>
<path d="M94.3341 169.172C96.0266 169.172 97.3986 167.798 97.3986 166.102C97.3986 164.406 96.0266 163.031 94.3341 163.031C92.6416 163.031 91.2695 164.406 91.2695 166.102C91.2695 167.798 92.6416 169.172 94.3341 169.172Z" fill="white"/>
<path d="M105.967 169.172C107.659 169.172 109.031 167.798 109.031 166.102C109.031 164.406 107.659 163.031 105.967 163.031C104.274 163.031 102.902 164.406 102.902 166.102C102.902 167.798 104.274 169.172 105.967 169.172Z" fill="white"/>
<path d="M519 349.891H4V351H519V349.891Z" fill="#E6E6E6"/>
<path d="M266.185 239.889H188.586V244.352H266.185V239.889Z" fill="#E6E6E6"/>
<path d="M308.416 256.17H188.586V260.634H308.416V256.17Z" fill="#AFECFA"/>
<path d="M286.244 271.509H188.586V275.973H286.244V271.509Z" fill="#E6E6E6"/>
<path d="M245.598 286.792H188.586V291.256H245.598V286.792Z" fill="#E6E6E6"/>
<path d="M274.631 302.073H188.586V306.537H274.631V302.073Z" fill="#E6E6E6"/>
<path d="M403.649 209.442H394.148V218.963H403.649V209.442Z" fill="#E6E6E6"/>
<path d="M420.014 209.442H410.512V218.963H420.014V209.442Z" fill="#E6E6E6"/>
<path opacity="0.997" d="M400.716 291.255C411.374 291.255 420.013 282.598 420.013 271.919C420.013 261.24 411.374 252.583 400.716 252.583C390.059 252.583 381.42 261.24 381.42 271.919C381.42 282.598 390.059 291.255 400.716 291.255Z" fill="#AFECFA"/>
<path d="M108.266 52.3572C120.264 52.3572 129.991 42.6109 129.991 30.5883C129.991 18.5657 120.264 8.81941 108.266 8.81941C96.2681 8.81941 86.5416 18.5657 86.5416 30.5883C86.5416 42.6109 96.2681 52.3572 108.266 52.3572Z" fill="#2F2E41"/>
<path d="M54.2017 216.846H44.6872L40.1617 180.082H54.2006L54.2017 216.846Z" fill="#FEB8B8"/>
<path d="M37.8954 214.122H56.2401V225.696H26.3447C26.3447 222.627 27.5616 219.683 29.7278 217.512C31.894 215.341 34.8319 214.122 37.8954 214.122Z" fill="#2F2E41"/>
<path d="M39.353 211.526L30.2777 208.672L36.9445 172.235L50.3389 176.448L39.353 211.526Z" fill="#FEB8B8"/>
<path d="M24.6033 204.037L42.1069 209.541L38.6484 220.584L10.1245 211.614C10.5787 210.164 11.3135 208.818 12.2869 207.652C13.2604 206.486 14.4535 205.524 15.798 204.821C17.1425 204.117 18.6122 203.686 20.1231 203.551C21.634 203.417 23.1566 203.582 24.6039 204.037L24.6033 204.037Z" fill="#2F2E41"/>
<path d="M42.448 196.856C42.0324 196.856 41.6201 196.78 41.231 196.634L34.2307 194.005C33.445 193.707 32.7924 193.136 32.3916 192.396C31.9909 191.657 31.8687 190.797 32.0473 189.975C33.8092 182.037 39.8138 155.011 43.1018 140.516C47.0011 123.322 103.887 120.127 106.306 120L106.505 119.989L112.905 128.044C115.217 135.491 114.484 141.3 110.726 145.31C99.7608 157.008 67.0226 149.749 63.1189 148.831L45.7189 194.603C45.4653 195.266 45.0171 195.836 44.4334 196.238C43.8497 196.64 43.158 196.856 42.4497 196.856H42.448Z" fill="#2F2E41"/>
<path d="M52.5345 202.298C52.1189 202.298 51.7066 202.223 51.3175 202.077L44.3194 199.447C43.5337 199.149 42.881 198.578 42.4802 197.838C42.0794 197.099 41.9573 196.239 42.136 195.417C43.8979 187.479 49.9025 160.453 53.1906 145.958C57.0899 128.764 113.975 125.569 116.395 125.442L116.594 125.431L122.991 133.488C125.303 140.935 124.57 146.745 120.813 150.754C109.848 162.45 77.109 155.194 73.2053 154.275L55.8032 200.045C55.5496 200.708 55.1014 201.278 54.5177 201.68C53.934 202.082 53.2423 202.298 52.534 202.298L52.5345 202.298Z" fill="#2F2E41"/>
<path d="M32.2879 90.3254C32.5449 90.6701 32.7744 91.0344 32.9744 91.4152L71.2415 95.4549L76.751 87.8865L89.2355 94.7237L78.4161 113.089L31.4847 101.098C30.3006 102.255 28.7932 103.023 27.1628 103.3C25.5324 103.578 23.8564 103.351 22.3577 102.651C20.859 101.95 19.6085 100.809 18.7727 99.3796C17.9369 97.9498 17.5553 96.2989 17.6786 94.6464C17.802 92.994 18.4245 91.4183 19.4633 90.129C20.5022 88.8397 21.9081 87.8978 23.4941 87.4287C25.0802 86.9595 26.7712 86.9854 28.3422 87.5027C29.9132 88.0201 31.2899 89.0044 32.289 90.3248L32.2879 90.3254Z" fill="#FEB8B8"/>
<path d="M121.215 136.572C120.661 136.571 120.116 136.438 119.624 136.184C111.972 132.285 97.0723 125.533 83.2552 124.12C82.7824 124.074 82.3244 123.929 81.9108 123.695C81.4971 123.46 81.137 123.142 80.8534 122.76C80.5643 122.374 80.3576 121.932 80.2464 121.463C80.1351 120.993 80.1216 120.506 80.2067 120.031C81.4535 113.115 84.3134 95.5037 83.945 81.3896C83.8365 77.0499 85.2049 72.8023 87.825 69.3451C90.4451 65.888 94.1612 63.427 98.3623 62.3667C100.891 61.6982 103.459 61.1907 106.051 60.8474C109.032 60.4691 112.059 60.7956 114.891 61.8007C117.723 62.8057 120.281 64.4614 122.36 66.6351C124.438 68.8088 125.98 71.4401 126.861 74.3181C127.742 77.1962 127.938 80.2411 127.434 83.2088C124.97 97.8356 122.486 118.265 124.645 132.526C124.744 133.165 124.665 133.819 124.416 134.416C124.167 135.013 123.758 135.529 123.234 135.907C122.648 136.337 121.941 136.57 121.215 136.572Z" fill="#CCCCCC"/>
<path d="M84.6537 99.3687C84.1767 99.368 83.7049 99.2693 83.2674 99.0788L73.2988 94.7553C72.4497 94.3859 71.7815 93.694 71.4408 92.8315C71.1001 91.969 71.1148 91.0063 71.4816 90.1547L79.1872 72.318C79.645 71.2371 80.3107 70.2572 81.1463 69.4342C81.982 68.6111 82.9712 67.9611 84.0576 67.5211C85.144 67.0812 86.3062 66.86 87.4779 66.8701C88.6495 66.8802 89.8078 67.1215 90.8864 67.5802C91.9651 68.0388 92.943 68.7059 93.7643 69.5432C94.5857 70.3806 95.2344 71.3719 95.6735 72.4605C96.1125 73.549 96.3333 74.7136 96.3232 75.8877C96.3131 77.0618 96.0723 78.2224 95.6145 79.3032C95.5979 79.3425 95.581 79.3816 95.5638 79.4207L87.8581 97.258C87.5869 97.8841 87.1392 98.4173 86.57 98.7922C86.0008 99.1671 85.3348 99.3675 84.6537 99.3687Z" fill="#CCCCCC"/>
<path d="M107.472 54.7795C117.997 54.7795 126.529 46.2301 126.529 35.684C126.529 25.1378 117.997 16.5885 107.472 16.5885C96.9477 16.5885 88.4158 25.1378 88.4158 35.684C88.4158 46.2301 96.9477 54.7795 107.472 54.7795Z" fill="#FEB8B8"/>
<path d="M88.0728 26.3003C97.0992 31.8218 107.275 35.1817 117.809 36.1185L114.675 32.3554C116.957 33.201 119.359 33.6788 121.79 33.7711C123.008 33.8065 124.216 33.5554 125.319 33.038C126.423 32.5206 127.389 31.7512 128.142 30.7918C128.757 29.7958 129.122 28.6658 129.206 27.4979C129.291 26.3301 129.092 25.1591 128.627 24.0848C127.672 21.9412 126.185 20.0782 124.309 18.6732C120.982 16.0362 117.056 14.2649 112.88 13.5171C108.705 12.7693 104.409 13.0683 100.377 14.3873C97.6108 15.2156 95.1335 16.808 93.2288 18.9819C91.4222 21.2152 87.9444 23.2051 88.8693 25.9261L88.0728 26.3003Z" fill="#2F2E41"/>
<path d="M109.176 10.2141C112.975 6.35336 117.571 3.37392 122.643 1.48555C125.862 0.128607 129.393 -0.310485 132.845 0.216769C136.249 0.902988 139.467 3.26208 140.417 6.60837C141.191 9.34437 140.391 12.2905 139.187 14.8674C137.982 17.4443 136.373 19.8317 135.399 22.5034C134.404 25.2295 134.105 28.1614 134.528 31.0327C134.952 33.9041 136.084 36.6241 137.823 38.9457C139.561 41.2673 141.851 43.117 144.484 44.327C147.117 45.5369 150.01 46.0687 152.9 45.8742C149.556 46.3237 146.474 47.8985 143.205 48.736C139.936 49.5736 136.078 49.5176 133.649 47.1707C131.079 44.688 131.028 40.6516 131.152 37.0769L131.706 21.1343C131.8 18.4243 131.88 15.6273 130.905 13.097C129.929 10.5666 127.611 8.35219 124.905 8.37547C122.854 8.39265 121.039 9.63815 119.394 10.8659C117.749 12.0937 116.008 13.4035 113.965 13.5864C111.922 13.7693 109.589 12.2561 109.742 10.2052" fill="#2F2E41"/>
<path d="M75.4334 131.667C74.1707 131.665 72.9242 131.383 71.7834 130.84C70.6427 130.298 69.6362 129.509 68.8365 128.53C68.0368 127.55 67.4638 126.406 67.1587 125.178C66.8536 123.95 66.8241 122.67 67.0723 121.43C67.3204 120.189 67.8401 119.019 68.5938 118.004C69.3475 116.989 70.3165 116.154 71.431 115.559C72.5455 114.965 73.7777 114.625 75.039 114.565C76.3002 114.505 77.559 114.726 78.7247 115.212C79.0754 115.361 79.4153 115.533 79.742 115.729L114.456 100.114L115.431 90.6796L130.395 90.2783L130.296 105.984C130.278 107.804 129.675 109.569 128.576 111.018C127.477 112.467 125.941 113.522 124.196 114.027L83.602 125.603C83.5237 125.872 83.4314 126.136 83.3255 126.395C82.6741 127.954 81.5782 129.286 80.175 130.223C78.7719 131.161 77.1238 131.663 75.4373 131.666L75.4334 131.667Z" fill="#FEB8B8"/>
<path d="M129.128 97.9741C128.702 98.1899 128.237 98.3159 127.761 98.3444L116.919 99.0123C115.995 99.0682 115.087 98.7545 114.393 98.1402C113.7 97.5259 113.278 96.661 113.22 95.7353L112.03 76.3349C111.887 73.9697 112.688 71.6444 114.255 69.87C115.822 68.0957 118.028 67.0172 120.389 66.8717C122.749 66.7262 125.07 67.5255 126.843 69.094C128.615 70.6625 129.694 72.8719 129.842 75.2369L131.032 94.6373C131.074 95.3188 130.916 95.9975 130.577 96.5903C130.239 97.183 129.736 97.664 129.129 97.9741H129.128Z" fill="#CCCCCC"/>
<path d="M107.296 128.186H42.5371C41.9939 128.186 41.5535 128.627 41.5535 129.171V132.642C41.5535 133.186 41.9939 133.628 42.5371 133.628H107.296C107.839 133.628 108.28 133.186 108.28 132.642V129.171C108.28 128.627 107.839 128.186 107.296 128.186Z" fill="#3F3D56"/>
<path d="M16.6703 128.575V90.4784C16.672 89.1386 17.2038 87.8542 18.1493 86.9068C19.0947 85.9595 20.3765 85.4265 21.7136 85.4249H90.7673C92.1044 85.4264 93.3863 85.9593 94.3318 86.9067C95.2773 87.8541 95.8091 89.1386 95.8105 90.4784V128.575C95.8091 129.914 95.2773 131.199 94.3318 132.146C93.3863 133.094 92.1044 133.627 90.7673 133.628H21.7136C20.3765 133.627 19.0947 133.094 18.1493 132.146C17.2038 131.199 16.672 129.914 16.6703 128.575Z" fill="#3F3D56"/>
<path d="M57.071 114.193C59.6421 114.193 61.7265 112.105 61.7265 109.528C61.7265 106.952 59.6421 104.864 57.071 104.864C54.4999 104.864 52.4155 106.952 52.4155 109.528C52.4155 112.105 54.4999 114.193 57.071 114.193Z" fill="white"/>
</g>
<defs>
<filter id="filter0_d" x="0" y="0" width="523" height="359" filterUnits="userSpaceOnUse" color-interpolation-filters="sRGB">
<feFlood flood-opacity="0" result="BackgroundImageFix"/>
<feColorMatrix in="SourceAlpha" type="matrix" values="0 0 0 0 0 0 0 0 0 0 0 0 0 0 0 0 0 0 127 0"/>
<feOffset dy="4"/>
<feGaussianBlur stdDeviation="2"/>
<feColorMatrix type="matrix" values="0 0 0 0 0 0 0 0 0 0 0 0 0 0 0 0 0 0 0.25 0"/>
<feBlend mode="normal" in2="BackgroundImageFix" result="effect1_dropShadow"/>
<feBlend mode="normal" in="SourceGraphic" in2="effect1_dropShadow" result="shape"/>
</filter>
</defs>
</svg>
